<?xml version="1.0" encoding="utf-8"?>
<!-- Generator: Adobe Illustrator 25.0.1, SVG Export Plug-In . SVG Version: 6.00 Build 0)  -->
<svg version="1.1" id="Layer_1" xmlns="http://www.w3.org/2000/svg" xmlns:xlink="http://www.w3.org/1999/xlink" x="0px" y="0px"
	 viewBox="0 0 136.7 136.7" style="enable-background:new 0 0 136.7 136.7;" xml:space="preserve">
<style type="text/css">
	.st0{fill:#FFFFFF;}
	.st1{fill:#003468;}
	.st2{fill:url(#SVGID_1_);}
	.st3{fill:url(#SVGID_2_);}
	.st4{fill:url(#SVGID_3_);}
	.st5{fill:url(#SVGID_4_);}
	.st6{fill:url(#SVGID_5_);}
	.st7{fill:url(#SVGID_6_);}
	.st8{fill:url(#SVGID_7_);}
	.st9{fill:url(#SVGID_8_);}
</style>
<g id="Layer_2_1_">
	<g id="Layer_1-2">
		<circle class="st0" cx="68.3" cy="68.3" r="68.3"/>
	</g>
</g>
<g>
	<g>
		<g>
			<path class="st1" d="M67.7,52.8c-4-0.3-7.5,2.7-7.9,6.7c0,0.1,0,0.3,0,0.4c0,3.1,1.7,5.7,6.6,5.7c1.3,0,2.6-0.2,3.9-0.6
				c0.2-1.7,0.6-3.4,1.2-5.1c-0.4,0-0.9,0-1.3,0c-0.5,0-0.9,0-1.4,0c-0.2,1.5-0.6,3-1.1,4.5c-0.5,0.1-1,0.2-1.6,0.2
				c-2.7,0-3.6-1.7-3.6-4c0-2.7,1.4-6.7,5.5-6.7c1.4-0.1,2.8,0.6,3.6,1.7h0.2c0.2-0.6,0.5-1.1,0.8-1.6
				C71.1,53.3,69.4,52.9,67.7,52.8z"/>
			<path class="st1" d="M76.6,52.1c-0.8,0-1.4,0.6-1.4,1.3s0.6,1.4,1.3,1.4c0.8,0,1.4-0.6,1.4-1.3C77.9,52.8,77.3,52.1,76.6,52.1
				C76.6,52.1,76.6,52.1,76.6,52.1z M76,56.9c-0.4,0-0.9,0-1.3,0c-0.5,2.9-1.1,5.8-1.9,8.6c0.5,0,0.9,0,1.4,0c0.4,0,0.9,0,1.3,0
				c0.4-2.9,1.1-5.8,1.9-8.6C76.9,57,76.4,57,76,56.9z"/>
			<path class="st1" d="M85.3,65c-0.4,0-0.5-0.4-0.5-0.7c0-0.5,0.1-0.9,0.2-1.4l0.5-2.2c0.1-0.5,0.2-1.1,0.2-1.6
				c0-1.7-1.4-2.2-2.8-2.2c-1.1,0-2.2,0.3-3.2,0.8c0,0.4,0,0.6-0.1,1l0,0c0.5-0.4,1.2-0.7,1.9-0.7c0.7,0,1.6,0.3,1.6,1.4
				s-0.3,1-1.4,1.1c-0.7,0.1-1.5,0.2-2.2,0.4c-1.1,0.4-1.9,1.4-1.9,2.6c-0.1,1.2,0.9,2.3,2.1,2.4c0.1,0,0.2,0,0.2,0
				c1.1,0.1,2.1-0.4,2.6-1.4c0.1,0.8,0.8,1.4,1.7,1.4c0.5,0,1-0.2,1.5-0.5l-0.2-0.4C85.5,64.9,85.4,65,85.3,65z M82.8,62.4
				c-0.2,0.9-0.5,2.2-1.6,2.2c-0.7,0-0.9-0.6-0.9-1.2c-0.1-0.7,0.2-1.4,0.8-1.9c0.6-0.3,1.3-0.5,2-0.5L82.8,62.4z"/>
			<path class="st1" d="M92.1,56.8c-2.9,0-5.2,2.3-5.3,5.2c0,0,0,0,0,0c-0.1,2,1.5,3.7,3.5,3.8c0.1,0,0.2,0,0.3,0
				c2.9,0,5.3-2.3,5.4-5.2c0.1-2-1.3-3.7-3.3-3.8C92.5,56.8,92.3,56.8,92.1,56.8z M90.7,65.2c-1.2,0-1.4-1.2-1.4-2.2
				c0-1.5,0.7-5.4,2.8-5.4c1.2,0,1.4,1.2,1.4,2.2C93.6,61.2,92.9,65.2,90.7,65.2L90.7,65.2z"/>
		</g>
		<g>
			<path class="st1" d="M53.8,68.8c-1.6,0-3,0-4.4-0.1c0,0.5-0.2,1-0.3,1.4c1.1-0.1,2.3-0.1,3.4,0c-0.3,1.6-0.6,3.1-0.9,4.6
				c-0.5,2.1-1.1,4.3-1.7,6.4c0.4,0,0.9,0,1.4,0l1.5,0.1c0.3-2.1,0.8-4.1,1.3-6.2s0.9-3.5,1.3-4.8c1,0,2,0.1,2.9,0.2
				c0-0.5,0.1-1,0.3-1.4C57.4,68.9,55.1,68.9,53.8,68.8z"/>
			<path class="st1" d="M64,72.4c-1.5,0-2.4,1.6-2.7,2.2l0.6-2c-0.4,0-0.7,0-1.1,0c-0.4,0-0.8,0-1.2,0c-0.5,2.9-1.1,5.8-1.9,8.6
				c0.4,0,0.8,0,1.3,0s1,0,1.3,0.1c0.5-2.5,0.7-3.8,0.9-4.6s0.6-2,2.1-1.9c0.3,0,0.7,0.1,0.9,0.3h0.2c0-0.8,0.3-1.6,0.6-2.3
				C64.7,72.6,64.4,72.4,64,72.4z"/>
			<path class="st1" d="M70,72.4c-2.9,0-5.2,2.3-5.3,5.1c0,0,0,0,0,0.1c-0.1,2,1.5,3.7,3.5,3.8c0.1,0,0.2,0,0.3,0
				c2.9,0.1,5.3-2.2,5.4-5.1c0.2-2-1.3-3.7-3.3-3.8C70.4,72.4,70.2,72.4,70,72.4z M68.6,80.8c-1.2,0-1.4-1.2-1.4-2.2
				c0-1.5,0.7-5.4,2.8-5.4c1.2,0,1.4,1.2,1.4,2.2C71.4,76.8,70.7,80.8,68.6,80.8z"/>
			<path class="st1" d="M81.6,72.6c-1.3,0-2.5,0.6-3.3,1.7c0.2-0.7,0.2-0.9,0.4-1.5c-0.4,0-0.8,0-1.2,0c-0.4,0-0.9,0-1.3,0
				c-0.7,3.9-1.4,6.3-2,8.6c0.4,0,0.9,0,1.3,0c0.4,0,0.8,0,1.3,0c0.3-1.7,0.7-3.5,1.2-5.2c0.5-1.6,1.5-2.3,2.3-2.3
				c0.5-0.1,1,0.3,1,0.8c0,0.1,0,0.1,0,0.2c-0.4,2.2-1,4.3-1.7,6.4c0.4,0,0.9,0,1.3,0c0.4,0,0.9,0,1.3,0.1c0.2-1.4,0.4-2.2,0.9-3.9
				c0.3-1,0.5-2,0.6-3C83.8,73.4,83.1,72.6,81.6,72.6z"/>
			<path class="st1" d="M94.2,72.9L92,73c-0.4,0-0.7-0.1-1.1-0.2c-0.5-0.1-0.9-0.2-1.4-0.2c-2.7,0-4,1.5-4,3.1c0,1,0.6,2,1.6,2.3
				v0.1c-0.9,0.2-1.9,0.8-1.9,1.9c0,0.6,0.3,1.1,0.9,1.3l0,0c-1.2,0.3-2.4,1-2.4,2.3c0,1.9,2.3,2.5,3.8,2.5c2.3,0.3,4.4-1.3,4.8-3.6
				c0,0,0-0.1,0-0.1c0-0.8-0.5-1.5-1.2-1.9c-0.8-0.2-1.6-0.4-2.4-0.3c-1.1,0-1.7-0.1-1.7-0.8c0-0.5,0.4-0.8,0.9-0.8c0,0,0,0,0,0h0.9
				c1,0.1,2-0.2,2.9-0.7c0.8-0.5,1.3-1.4,1.3-2.3c0-0.7-0.2-1.3-0.6-1.8h1.5C94,73.4,94,73.1,94.2,72.9z M87.2,81.7
				c2.5,0,3.2,0.4,3.2,1.5c0,1.1-0.9,2.1-2.7,2.1c-1.3,0-2.3-0.5-2.3-1.9c0-0.6,0.3-1.2,0.9-1.5C86.5,81.8,86.8,81.7,87.2,81.7z
				 M88.9,77.7c-0.8,0-1.1-0.6-1-1.3s0.4-3.1,1.8-3.1c0.9,0,1.1,0.8,1.1,1.3C90.7,75.6,90.2,77.7,88.9,77.7z"/>
		</g>
		<path class="st1" d="M128,68.2c-1.6,0-3.2,0.6-4.6,2.3c0.7-3.5,1.5-6.7,2.4-9.3c-0.6,0-1.2,0.1-2,0.1c-0.8,0-1.4-0.1-1.9-0.2
			c-0.6,3.1-2.7,13.1-4.5,20c0.7-0.1,1.4-0.1,2-0.1c0.6,0,1.2,0.1,1.9,0.2c0.3-1.5,0.9-5.3,1.7-7.6c0.5-1.5,1.5-3.5,3.4-3.4
			c1,0,1.5,0.6,1.5,1.4c0,0.7-0.5,2.7-0.8,3.5c-0.7,2.7-1,3.8-1.8,6.1c1-0.1,1.6-0.1,2.1-0.1c0.7,0,1.3,0.1,1.9,0.2
			c0.4-2.6,0.8-4.3,1-4.9c0.3-1.3,1-3.8,1.1-5.2C131.3,69.3,130.1,68.2,128,68.2z"/>
		<g>
			<path class="st1" d="M99.1,73.5c0.3,2.8,1.5,5.5,4.7,5.5c3.6,0,4.8-4.5,4.8-7.5c0-3-1.1-4.4-4.2-4.4c-0.5,0-0.8,0-1.1,0.1
				c0.3-0.9,0.4-1.5,0.5-2.5c2.3,0.1,7,0.2,7-6.2c0-2.1-0.6-4.1-3.1-4.1c-2.9,0-3.9,2.7-4.1,5.2L103,60c-0.9-1.5-1.6-2.2-3.3-3.9
				c1.5-1.6,3.5-4,8.8-4c4.3,0,8.9,1.9,8.9,6.8c0,5.8-6,6.8-7.6,7v0.2c1.2,0.3,5.8,1.3,5.8,6.6c0,4.4-3.4,8.6-10.8,8.6
				c-5.8,0-7.9-2.2-9.4-3.7c1.6-1.8,2-2.3,3.2-4.3L99.1,73.5z"/>
		</g>
	</g>
	<linearGradient id="SVGID_1_" gradientUnits="userSpaceOnUse" x1="-11.4793" y1="51.6907" x2="63.4951" y2="77.0005">
		<stop  offset="5.494510e-03" style="stop-color:#FFFFFF"/>
		<stop  offset="0.263" style="stop-color:#E6D0A1"/>
		<stop  offset="0.3785" style="stop-color:#E5CE9E"/>
		<stop  offset="0.4779" style="stop-color:#E2C793"/>
		<stop  offset="0.5711" style="stop-color:#DCBB81"/>
		<stop  offset="0.6264" style="stop-color:#D8B273"/>
		<stop  offset="0.6879" style="stop-color:#C7A469"/>
		<stop  offset="0.8092" style="stop-color:#9C8050"/>
		<stop  offset="0.9771" style="stop-color:#574527"/>
		<stop  offset="1" style="stop-color:#4D3D21"/>
	</linearGradient>
	<path class="st2" d="M45.5,68h-25c-0.7,0-1.2-0.6-1.2-1.2c0-0.7,0.6-1.2,1.2-1.2h25.1c0.7,0,1.3,0.6,1.2,1.4
		C46.8,67.5,46.2,68,45.5,68z"/>
	<linearGradient id="SVGID_2_" gradientUnits="userSpaceOnUse" x1="-5.0738" y1="41.4161" x2="69.9005" y2="66.726">
		<stop  offset="5.494510e-03" style="stop-color:#FFFFFF"/>
		<stop  offset="0.263" style="stop-color:#E6D0A1"/>
		<stop  offset="0.3785" style="stop-color:#E5CE9E"/>
		<stop  offset="0.4779" style="stop-color:#E2C793"/>
		<stop  offset="0.5711" style="stop-color:#DCBB81"/>
		<stop  offset="0.6264" style="stop-color:#D8B273"/>
		<stop  offset="0.6879" style="stop-color:#C7A469"/>
		<stop  offset="0.8092" style="stop-color:#9C8050"/>
		<stop  offset="0.9771" style="stop-color:#574527"/>
		<stop  offset="1" style="stop-color:#4D3D21"/>
	</linearGradient>
	<path class="st3" d="M50.9,55.3h-37c-0.7,0-1.2-0.6-1.2-1.2c0-0.7,0.6-1.2,1.2-1.2h37c0.7,0,1.3,0.6,1.2,1.4
		C52.1,54.8,51.5,55.3,50.9,55.3z"/>
	<g>
		<linearGradient id="SVGID_3_" gradientUnits="userSpaceOnUse" x1="4.644892e-02" y1="44.6343" x2="75.0208" y2="69.9441">
			<stop  offset="5.494510e-03" style="stop-color:#FFFFFF"/>
			<stop  offset="0.263" style="stop-color:#E6D0A1"/>
			<stop  offset="0.3785" style="stop-color:#E5CE9E"/>
			<stop  offset="0.4779" style="stop-color:#E2C793"/>
			<stop  offset="0.5711" style="stop-color:#DCBB81"/>
			<stop  offset="0.6264" style="stop-color:#D8B273"/>
			<stop  offset="0.6879" style="stop-color:#C7A469"/>
			<stop  offset="0.8092" style="stop-color:#9C8050"/>
			<stop  offset="0.9771" style="stop-color:#574527"/>
			<stop  offset="1" style="stop-color:#4D3D21"/>
		</linearGradient>
		<path class="st4" d="M53.4,61.6H40c-0.7,0-1.2-0.6-1.2-1.2c0-0.7,0.6-1.2,1.2-1.2h13.6c0.7,0,1.3,0.6,1.2,1.4
			C54.7,61.2,54.1,61.6,53.4,61.6z"/>
		<linearGradient id="SVGID_4_" gradientUnits="userSpaceOnUse" x1="-1.1628" y1="48.2164" x2="73.8116" y2="73.5262">
			<stop  offset="5.494510e-03" style="stop-color:#FFFFFF"/>
			<stop  offset="0.263" style="stop-color:#E6D0A1"/>
			<stop  offset="0.3785" style="stop-color:#E5CE9E"/>
			<stop  offset="0.4779" style="stop-color:#E2C793"/>
			<stop  offset="0.5711" style="stop-color:#DCBB81"/>
			<stop  offset="0.6264" style="stop-color:#D8B273"/>
			<stop  offset="0.6879" style="stop-color:#C7A469"/>
			<stop  offset="0.8092" style="stop-color:#9C8050"/>
			<stop  offset="0.9771" style="stop-color:#574527"/>
			<stop  offset="1" style="stop-color:#4D3D21"/>
		</linearGradient>
		<path class="st5" d="M36.2,61.6h-2.6c-0.7,0-1.2-0.6-1.2-1.2c0-0.7,0.6-1.2,1.2-1.2h2.7c0.7,0,1.3,0.6,1.2,1.4
			C37.4,61.2,36.8,61.6,36.2,61.6z"/>
	</g>
	<g>
		<linearGradient id="SVGID_5_" gradientUnits="userSpaceOnUse" x1="-10.3904" y1="60.8361" x2="64.584" y2="86.1459">
			<stop  offset="5.494510e-03" style="stop-color:#FFFFFF"/>
			<stop  offset="0.263" style="stop-color:#E6D0A1"/>
			<stop  offset="0.3785" style="stop-color:#E5CE9E"/>
			<stop  offset="0.4779" style="stop-color:#E2C793"/>
			<stop  offset="0.5711" style="stop-color:#DCBB81"/>
			<stop  offset="0.6264" style="stop-color:#D8B273"/>
			<stop  offset="0.6879" style="stop-color:#C7A469"/>
			<stop  offset="0.8092" style="stop-color:#9C8050"/>
			<stop  offset="0.9771" style="stop-color:#574527"/>
			<stop  offset="1" style="stop-color:#4D3D21"/>
		</linearGradient>
		<path class="st6" d="M38.3,74.3h-25c-0.7,0-1.2-0.6-1.2-1.2c0-0.7,0.6-1.2,1.2-1.2h25.1c0.7,0,1.3,0.6,1.2,1.4
			C39.5,73.8,38.9,74.3,38.3,74.3z"/>
		<linearGradient id="SVGID_6_" gradientUnits="userSpaceOnUse" x1="-12.2057" y1="66.2136" x2="62.7687" y2="91.5234">
			<stop  offset="5.494510e-03" style="stop-color:#FFFFFF"/>
			<stop  offset="0.263" style="stop-color:#E6D0A1"/>
			<stop  offset="0.3785" style="stop-color:#E5CE9E"/>
			<stop  offset="0.4779" style="stop-color:#E2C793"/>
			<stop  offset="0.5711" style="stop-color:#DCBB81"/>
			<stop  offset="0.6264" style="stop-color:#D8B273"/>
			<stop  offset="0.6879" style="stop-color:#C7A469"/>
			<stop  offset="0.8092" style="stop-color:#9C8050"/>
			<stop  offset="0.9771" style="stop-color:#574527"/>
			<stop  offset="1" style="stop-color:#4D3D21"/>
		</linearGradient>
		<path class="st7" d="M9.3,74.3H6.7c-0.7,0-1.2-0.6-1.2-1.2c0-0.7,0.6-1.2,1.2-1.2h2.7c0.7,0,1.3,0.6,1.2,1.4
			C10.5,73.8,10,74.3,9.3,74.3z"/>
	</g>
	<g>
		<linearGradient id="SVGID_7_" gradientUnits="userSpaceOnUse" x1="-4.2133" y1="66.8979" x2="70.761" y2="92.2077">
			<stop  offset="5.494510e-03" style="stop-color:#FFFFFF"/>
			<stop  offset="0.263" style="stop-color:#E6D0A1"/>
			<stop  offset="0.3785" style="stop-color:#E5CE9E"/>
			<stop  offset="0.4779" style="stop-color:#E2C793"/>
			<stop  offset="0.5711" style="stop-color:#DCBB81"/>
			<stop  offset="0.6264" style="stop-color:#D8B273"/>
			<stop  offset="0.6879" style="stop-color:#C7A469"/>
			<stop  offset="0.8092" style="stop-color:#9C8050"/>
			<stop  offset="0.9771" style="stop-color:#574527"/>
			<stop  offset="1" style="stop-color:#4D3D21"/>
		</linearGradient>
		<path class="st8" d="M39.2,80.6H26.2c-0.7,0-1.2-0.6-1.2-1.2c0-0.7,0.6-1.2,1.2-1.2h13.1c0.7,0,1.3,0.6,1.2,1.4
			C40.5,80.1,39.9,80.6,39.2,80.6z"/>
		<linearGradient id="SVGID_8_" gradientUnits="userSpaceOnUse" x1="-2.8781" y1="62.9427" x2="72.0962" y2="88.2525">
			<stop  offset="5.494510e-03" style="stop-color:#FFFFFF"/>
			<stop  offset="0.263" style="stop-color:#E6D0A1"/>
			<stop  offset="0.3785" style="stop-color:#E5CE9E"/>
			<stop  offset="0.4779" style="stop-color:#E2C793"/>
			<stop  offset="0.5711" style="stop-color:#DCBB81"/>
			<stop  offset="0.6264" style="stop-color:#D8B273"/>
			<stop  offset="0.6879" style="stop-color:#C7A469"/>
			<stop  offset="0.8092" style="stop-color:#9C8050"/>
			<stop  offset="0.9771" style="stop-color:#574527"/>
			<stop  offset="1" style="stop-color:#4D3D21"/>
		</linearGradient>
		<path class="st9" d="M47.1,80.6h-2.6c-0.7,0-1.2-0.6-1.2-1.2c0-0.7,0.6-1.2,1.2-1.2h2.7c0.7,0,1.3,0.6,1.2,1.4
			C48.3,80.1,47.7,80.6,47.1,80.6z"/>
	</g>
</g>
</svg>
